# xmcd CD database file
#
# Track frame offsets:
#	150
#	79246
#	114901
#	198511
#
# Disc length: 3321 seconds
#
# Revision: 0
# Processed by: cddbd v1.5.2PL0 Copyright (c) Steve Scherf et al.
# Submitted via: CDex 1.70beta2
#
DISCID=2b0cf704
DTITLE=Bert Joris - Dangerous Liaison
DYEAR=1900
DGENRE=Jazz
TTITLE0=Dangerous Liaison
TTITLE1=Alone At Last
TTITLE2=Between Hope and Dispair
TTITLE3=Anna
EXTD=
EXTT0=
EXTT1=
EXTT2=
EXTT3=
PLAYORDER=
